<svg width="32" height="32" viewBox="0 0 32 32" fill="none" xmlns="http://www.w3.org/2000/svg">
<path opacity="0.1" fill-rule="evenodd" clip-rule="evenodd" d="M0 16C0 7.16344 7.16344 0 16 0C24.8366 0 32 7.16344 32 16C32 24.8366 24.8366 32 16 32C7.16344 32 0 24.8366 0 16Z" fill="#F4F5F7"/>
<path fill-rule="evenodd" clip-rule="evenodd" d="M15 25H17V18.8C17 18.247 17.447 17.8 18 17.8H20.24L20.685 16.2H18C17.447 16.2 17 15.753 17 15.2V12.5C17 11.452 17.897 10.6 19 10.6H21V9H19C16.794 9 15 10.57 15 12.5V15.2C15 15.753 14.553 16.2 14 16.2H12V17.8H14C14.553 17.8 15 18.247 15 18.8V25ZM18 27H14C13.447 27 13 26.553 13 26V19.8H11C10.447 19.8 10 19.353 10 18.8V15.2C10 14.647 10.447 14.2 11 14.2H13V12.5C13 9.468 15.691 7 19 7H22C22.553 7 23 7.447 23 8V11.6C23 12.152 22.553 12.6 22 12.6H19V14.2H22C22.312 14.2 22.607 14.347 22.796 14.595C22.985 14.844 23.047 15.167 22.964 15.468L21.964 19.067C21.844 19.5 21.449 19.8 21 19.8H19V26C19 26.553 18.553 27 18 27Z" fill="#231F20"/>
<mask id="mask0" mask-type="alpha" maskUnits="userSpaceOnUse" x="10" y="7" width="13" height="20">
<path fill-rule="evenodd" clip-rule="evenodd" d="M15 25H17V18.8C17 18.247 17.447 17.8 18 17.8H20.24L20.685 16.2H18C17.447 16.2 17 15.753 17 15.2V12.5C17 11.452 17.897 10.6 19 10.6H21V9H19C16.794 9 15 10.57 15 12.5V15.2C15 15.753 14.553 16.2 14 16.2H12V17.8H14C14.553 17.8 15 18.247 15 18.8V25ZM18 27H14C13.447 27 13 26.553 13 26V19.8H11C10.447 19.8 10 19.353 10 18.8V15.2C10 14.647 10.447 14.2 11 14.2H13V12.5C13 9.468 15.691 7 19 7H22C22.553 7 23 7.447 23 8V11.6C23 12.152 22.553 12.6 22 12.6H19V14.2H22C22.312 14.2 22.607 14.347 22.796 14.595C22.985 14.844 23.047 15.167 22.964 15.468L21.964 19.067C21.844 19.5 21.449 19.8 21 19.8H19V26C19 26.553 18.553 27 18 27Z" fill="white"/>
</mask>
<g mask="url(#mask0)">
<rect x="5" y="5" width="24" height="24" fill="#F4F5F7"/>
</g>
</svg>
