<svg width="32" height="32" viewBox="0 0 32 32" fill="none" xmlns="http://www.w3.org/2000/svg">
<path opacity="0.1" fill-rule="evenodd" clip-rule="evenodd" d="M0 16C0 7.16344 7.16344 0 16 0C24.8366 0 32 7.16344 32 16C32 24.8366 24.8366 32 16 32C7.16344 32 0 24.8366 0 16Z" fill="#F4F5F7"/>
<path fill-rule="evenodd" clip-rule="evenodd" d="M8 14H7.998L8 24H10V14H8ZM10 26H8C6.897 26 6 25.103 6 24V14C6 12.897 6.897 12 8 12H10C11.103 12 12 12.897 12 14V24C12 25.103 11.103 26 10 26ZM19.5049 15.6924C19.6579 15.6924 19.8129 15.7054 19.9659 15.7294C21.3159 15.9504 22.3329 17.1964 22.3329 18.6294V24.0004H23.9999V18.5384C23.9999 16.0364 21.9819 14.0004 19.4999 14.0004C17.0189 14.0004 14.9999 16.0364 14.9999 18.5384V24.0004H16.6669V18.5384C16.6669 17.6994 17.0319 16.9074 17.6699 16.3654C18.1859 15.9274 18.8349 15.6924 19.5049 15.6924ZM23.9999 26.0004H22.3329C21.2309 26.0004 20.3329 25.1024 20.3329 24.0004V18.6294C20.3329 18.1724 20.0299 17.7664 19.6449 17.7044C19.3089 17.6464 19.0749 17.7964 18.9659 17.8884C18.7759 18.0504 18.6669 18.2874 18.6669 18.5384V24.0004C18.6669 25.1024 17.7699 26.0004 16.6669 26.0004H14.9999C13.8979 26.0004 12.9999 25.1024 12.9999 24.0004V18.5384C12.9999 14.9324 15.9159 12.0004 19.4999 12.0004C23.0839 12.0004 25.9999 14.9324 25.9999 18.5384V24.0004C25.9999 25.1024 25.1029 26.0004 23.9999 26.0004ZM9 7C8.448 7 8 7.448 8 8C8 8.552 8.448 9 9 9C9.552 9 10 8.552 10 8C10 7.448 9.552 7 9 7ZM9 11C7.346 11 6 9.654 6 8C6 6.346 7.346 5 9 5C10.654 5 12 6.346 12 8C12 9.654 10.654 11 9 11Z" fill="#231F20"/>
<mask id="mask0" mask-type="alpha" maskUnits="userSpaceOnUse" x="6" y="5" width="20" height="22">
<path fill-rule="evenodd" clip-rule="evenodd" d="M8 14H7.998L8 24H10V14H8ZM10 26H8C6.897 26 6 25.103 6 24V14C6 12.897 6.897 12 8 12H10C11.103 12 12 12.897 12 14V24C12 25.103 11.103 26 10 26ZM19.5049 15.6924C19.6579 15.6924 19.8129 15.7054 19.9659 15.7294C21.3159 15.9504 22.3329 17.1964 22.3329 18.6294V24.0004H23.9999V18.5384C23.9999 16.0364 21.9819 14.0004 19.4999 14.0004C17.0189 14.0004 14.9999 16.0364 14.9999 18.5384V24.0004H16.6669V18.5384C16.6669 17.6994 17.0319 16.9074 17.6699 16.3654C18.1859 15.9274 18.8349 15.6924 19.5049 15.6924ZM23.9999 26.0004H22.3329C21.2309 26.0004 20.3329 25.1024 20.3329 24.0004V18.6294C20.3329 18.1724 20.0299 17.7664 19.6449 17.7044C19.3089 17.6464 19.0749 17.7964 18.9659 17.8884C18.7759 18.0504 18.6669 18.2874 18.6669 18.5384V24.0004C18.6669 25.1024 17.7699 26.0004 16.6669 26.0004H14.9999C13.8979 26.0004 12.9999 25.1024 12.9999 24.0004V18.5384C12.9999 14.9324 15.9159 12.0004 19.4999 12.0004C23.0839 12.0004 25.9999 14.9324 25.9999 18.5384V24.0004C25.9999 25.1024 25.1029 26.0004 23.9999 26.0004ZM9 7C8.448 7 8 7.448 8 8C8 8.552 8.448 9 9 9C9.552 9 10 8.552 10 8C10 7.448 9.552 7 9 7ZM9 11C7.346 11 6 9.654 6 8C6 6.346 7.346 5 9 5C10.654 5 12 6.346 12 8C12 9.654 10.654 11 9 11Z" fill="white"/>
</mask>
<g mask="url(#mask0)">
<rect x="4" y="4" width="24" height="24" fill="#FCFCFC"/>
</g>
</svg>
