<svg width="42" height="42" viewBox="0 0 42 42" fill="none" xmlns="http://www.w3.org/2000/svg">
<path opacity="0.1" fill-rule="evenodd" clip-rule="evenodd" d="M0 21C0 9.40202 9.40202 0 21 0C32.598 0 42 9.40202 42 21C42 32.598 32.598 42 21 42C9.40202 42 0 32.598 0 21Z" fill="#234095"/>
<path fill-rule="evenodd" clip-rule="evenodd" d="M21 15.6665C19.8973 15.6665 19 16.5638 19 17.6665C19 18.7692 19.8973 19.6665 21 19.6665C22.1027 19.6665 23 18.7692 23 17.6665C23 16.5638 22.1027 15.6665 21 15.6665ZM21 22.3332C18.4267 22.3332 16.3333 20.2398 16.3333 17.6665C16.3333 15.0932 18.4267 12.9998 21 12.9998C23.5733 12.9998 25.6667 15.0932 25.6667 17.6665C25.6667 20.2398 23.5733 22.3332 21 22.3332ZM21 7.6665C15.1187 7.6665 10.3333 12.4052 10.3333 18.2305C10.3333 25.5292 19.732 33.6692 20.132 34.0118C20.3827 34.2265 20.6907 34.3332 21 34.3332C21.3093 34.3332 21.6173 34.2265 21.868 34.0118C22.268 33.6692 31.6667 25.5292 31.6667 18.2305C31.6667 12.4052 26.8813 7.6665 21 7.6665Z" fill="#231F20"/>
<mask id="mask0" mask-type="alpha" maskUnits="userSpaceOnUse" x="10" y="7" width="22" height="28">
<path fill-rule="evenodd" clip-rule="evenodd" d="M21 15.6665C19.8973 15.6665 19 16.5638 19 17.6665C19 18.7692 19.8973 19.6665 21 19.6665C22.1027 19.6665 23 18.7692 23 17.6665C23 16.5638 22.1027 15.6665 21 15.6665ZM21 22.3332C18.4267 22.3332 16.3333 20.2398 16.3333 17.6665C16.3333 15.0932 18.4267 12.9998 21 12.9998C23.5733 12.9998 25.6667 15.0932 25.6667 17.6665C25.6667 20.2398 23.5733 22.3332 21 22.3332ZM21 7.6665C15.1187 7.6665 10.3333 12.4052 10.3333 18.2305C10.3333 25.5292 19.732 33.6692 20.132 34.0118C20.3827 34.2265 20.6907 34.3332 21 34.3332C21.3093 34.3332 21.6173 34.2265 21.868 34.0118C22.268 33.6692 31.6667 25.5292 31.6667 18.2305C31.6667 12.4052 26.8813 7.6665 21 7.6665Z" fill="white"/>
</mask>
<g mask="url(#mask0)">
<rect x="5" y="5" width="32" height="32" fill="#234095"/>
</g>
</svg>
