<svg width="42" height="42" viewBox="0 0 42 42" fill="none" xmlns="http://www.w3.org/2000/svg">
<path opacity="0.1" fill-rule="evenodd" clip-rule="evenodd" d="M0 21C0 9.40202 9.40202 0 21 0C32.598 0 42 9.40202 42 21C42 32.598 32.598 42 21 42C9.40202 42 0 32.598 0 21Z" fill="#234095"/>
<path fill-rule="evenodd" clip-rule="evenodd" d="M28.0874 34.125C16.9416 34.125 7.87488 25.0582 7.87488 13.9125C7.87488 10.5827 10.5839 7.875 13.9124 7.875C14.2536 7.875 14.5909 7.90387 14.9178 7.96031C15.2367 8.0115 15.5583 8.09287 15.8693 8.2005C16.2972 8.34881 16.6174 8.70713 16.7185 9.14813L18.5166 16.9759C18.6151 17.4064 18.4904 17.8579 18.1846 18.1781C18.0048 18.3645 18.0008 18.3684 16.3733 19.2203C17.6911 22.0736 19.9814 24.3561 22.7783 25.6292C23.6301 24.0004 23.6354 23.9951 23.8218 23.8166C24.1433 23.5095 24.5961 23.3901 25.0253 23.4846L32.8531 25.2814C33.2928 25.3824 33.6511 25.7027 33.7994 26.1292C33.907 26.439 33.9871 26.7593 34.0409 27.0887C34.096 27.4129 34.1249 27.7489 34.1249 28.0875C34.1249 31.4173 31.4172 34.125 28.0874 34.125Z" fill="#231F20"/>
<mask id="mask0" mask-type="alpha" maskUnits="userSpaceOnUse" x="7" y="7" width="28" height="28">
<path fill-rule="evenodd" clip-rule="evenodd" d="M28.0874 34.125C16.9416 34.125 7.87488 25.0582 7.87488 13.9125C7.87488 10.5827 10.5839 7.875 13.9124 7.875C14.2536 7.875 14.5909 7.90387 14.9178 7.96031C15.2367 8.0115 15.5583 8.09287 15.8693 8.2005C16.2972 8.34881 16.6174 8.70713 16.7185 9.14813L18.5166 16.9759C18.6151 17.4064 18.4904 17.8579 18.1846 18.1781C18.0048 18.3645 18.0008 18.3684 16.3733 19.2203C17.6911 22.0736 19.9814 24.3561 22.7783 25.6292C23.6301 24.0004 23.6354 23.9951 23.8218 23.8166C24.1433 23.5095 24.5961 23.3901 25.0253 23.4846L32.8531 25.2814C33.2928 25.3824 33.6511 25.7027 33.7994 26.1292C33.907 26.439 33.9871 26.7593 34.0409 27.0887C34.096 27.4129 34.1249 27.7489 34.1249 28.0875C34.1249 31.4173 31.4172 34.125 28.0874 34.125Z" fill="white"/>
</mask>
<g mask="url(#mask0)">
<rect x="5.25" y="5.25" width="31.5" height="31.5" fill="#234095"/>
</g>
</svg>
