<svg width="42" height="42" viewBox="0 0 42 42" fill="none" xmlns="http://www.w3.org/2000/svg">
<path opacity="0.1" fill-rule="evenodd" clip-rule="evenodd" d="M0 21C0 9.40202 9.40202 0 21 0C32.598 0 42 9.40202 42 21C42 32.598 32.598 42 21 42C9.40202 42 0 32.598 0 21Z" fill="#234095"/>
<path fill-rule="evenodd" clip-rule="evenodd" d="M26.25 22.3125H21C20.2755 22.3125 19.6875 21.7258 19.6875 21V15.75C19.6875 15.0242 20.2755 14.4375 21 14.4375C21.7245 14.4375 22.3125 15.0242 22.3125 15.75V19.6875H26.25C26.9758 19.6875 27.5625 20.2742 27.5625 21C27.5625 21.7258 26.9758 22.3125 26.25 22.3125ZM21 7.875C13.7629 7.875 7.875 13.7629 7.875 21C7.875 28.2371 13.7629 34.125 21 34.125C28.2371 34.125 34.125 28.2371 34.125 21C34.125 13.7629 28.2371 7.875 21 7.875Z" fill="#231F20"/>
<mask id="mask0" mask-type="alpha" maskUnits="userSpaceOnUse" x="7" y="7" width="28" height="28">
<path fill-rule="evenodd" clip-rule="evenodd" d="M26.25 22.3125H21C20.2755 22.3125 19.6875 21.7258 19.6875 21V15.75C19.6875 15.0242 20.2755 14.4375 21 14.4375C21.7245 14.4375 22.3125 15.0242 22.3125 15.75V19.6875H26.25C26.9758 19.6875 27.5625 20.2742 27.5625 21C27.5625 21.7258 26.9758 22.3125 26.25 22.3125ZM21 7.875C13.7629 7.875 7.875 13.7629 7.875 21C7.875 28.2371 13.7629 34.125 21 34.125C28.2371 34.125 34.125 28.2371 34.125 21C34.125 13.7629 28.2371 7.875 21 7.875Z" fill="white"/>
</mask>
<g mask="url(#mask0)">
<rect x="5.25" y="5.25" width="31.5" height="31.5" fill="#234095"/>
</g>
</svg>
