<svg width="32" height="32" viewBox="0 0 32 32" fill="none" xmlns="http://www.w3.org/2000/svg">
<path opacity="0.1" fill-rule="evenodd" clip-rule="evenodd" d="M0 16C0 7.16344 7.16344 0 16 0C24.8366 0 32 7.16344 32 16C32 24.8366 24.8366 32 16 32C7.16344 32 0 24.8366 0 16Z" fill="#F4F5F7"/>
<path fill-rule="evenodd" clip-rule="evenodd" d="M24.0156 11.6541V11.6561V11.6541ZM13.5126 22.9971C13.5366 22.9971 13.5626 22.9981 13.5866 23.0001C19.2816 22.9631 22.6806 18.6121 22.6806 14.4061C22.6806 14.0241 22.8766 13.7771 23.0506 13.5581C23.2086 13.3581 23.4536 13.0501 23.6716 12.6061C22.8786 12.5981 22.1706 12.2461 21.7586 11.7641C21.3276 11.3031 20.7086 11.0211 20.0406 11.0011C19.3966 10.9751 18.7396 11.2231 18.2516 11.6861C17.6016 12.3031 17.3236 13.2341 17.5256 14.1141L17.7866 15.2531L16.6206 15.3351C13.6046 15.5611 11.5146 14.2701 10.0796 12.9341C10.0856 14.9541 10.7566 17.6491 13.8066 19.3871L14.7646 19.9331L14.1276 20.8341C13.4646 21.7731 12.4666 22.3721 11.4506 22.7551C12.1216 22.9151 12.8116 22.9971 13.4996 22.9971H13.5116H13.5126ZM13.5126 25.0001C13.4866 25.0001 13.4586 24.9991 13.4326 24.9971C11.8296 24.9861 10.2216 24.6131 8.7776 23.9141C8.2346 23.6501 7.9276 23.0721 8.0146 22.4721C8.1026 21.8651 8.5686 21.3891 9.1726 21.2911C10.2176 21.1191 11.0846 20.8131 11.7126 20.4041C7.8356 17.5051 7.9376 13.1651 8.1886 11.3271C8.2626 10.7891 8.6456 10.3401 9.1636 10.1831C9.6896 10.0231 10.2346 10.1831 10.5946 10.5921C12.1306 12.3331 13.6656 13.2081 15.4656 13.3411C15.5176 12.1761 16.0136 11.0531 16.8746 10.2351C17.7516 9.40206 18.8986 8.96606 20.1026 9.00206C21.3076 9.03906 22.4256 9.54706 23.2496 10.4321C23.3336 10.5281 23.6476 10.7021 24.0266 10.5321C24.5236 10.3091 25.0886 10.3831 25.5006 10.7271C25.9116 11.0681 26.0866 11.6051 25.9586 12.1281C25.6356 13.4591 24.9976 14.3171 24.6756 14.7281C24.5076 19.8331 20.3596 25.0001 13.5126 25.0001Z" fill="#231F20"/>
<mask id="mask0" mask-type="alpha" maskUnits="userSpaceOnUse" x="8" y="9" width="18" height="16">
<path fill-rule="evenodd" clip-rule="evenodd" d="M24.0156 11.6541V11.6561V11.6541ZM13.5126 22.9971C13.5366 22.9971 13.5626 22.9981 13.5866 23.0001C19.2816 22.9631 22.6806 18.6121 22.6806 14.4061C22.6806 14.0241 22.8766 13.7771 23.0506 13.5581C23.2086 13.3581 23.4536 13.0501 23.6716 12.6061C22.8786 12.5981 22.1706 12.2461 21.7586 11.7641C21.3276 11.3031 20.7086 11.0211 20.0406 11.0011C19.3966 10.9751 18.7396 11.2231 18.2516 11.6861C17.6016 12.3031 17.3236 13.2341 17.5256 14.1141L17.7866 15.2531L16.6206 15.3351C13.6046 15.5611 11.5146 14.2701 10.0796 12.9341C10.0856 14.9541 10.7566 17.6491 13.8066 19.3871L14.7646 19.9331L14.1276 20.8341C13.4646 21.7731 12.4666 22.3721 11.4506 22.7551C12.1216 22.9151 12.8116 22.9971 13.4996 22.9971H13.5116H13.5126ZM13.5126 25.0001C13.4866 25.0001 13.4586 24.9991 13.4326 24.9971C11.8296 24.9861 10.2216 24.6131 8.7776 23.9141C8.2346 23.6501 7.9276 23.0721 8.0146 22.4721C8.1026 21.8651 8.5686 21.3891 9.1726 21.2911C10.2176 21.1191 11.0846 20.8131 11.7126 20.4041C7.8356 17.5051 7.9376 13.1651 8.1886 11.3271C8.2626 10.7891 8.6456 10.3401 9.1636 10.1831C9.6896 10.0231 10.2346 10.1831 10.5946 10.5921C12.1306 12.3331 13.6656 13.2081 15.4656 13.3411C15.5176 12.1761 16.0136 11.0531 16.8746 10.2351C17.7516 9.40206 18.8986 8.96606 20.1026 9.00206C21.3076 9.03906 22.4256 9.54706 23.2496 10.4321C23.3336 10.5281 23.6476 10.7021 24.0266 10.5321C24.5236 10.3091 25.0886 10.3831 25.5006 10.7271C25.9116 11.0681 26.0866 11.6051 25.9586 12.1281C25.6356 13.4591 24.9976 14.3171 24.6756 14.7281C24.5076 19.8331 20.3596 25.0001 13.5126 25.0001Z" fill="white"/>
</mask>
<g mask="url(#mask0)">
<rect x="5" y="5" width="24" height="24" fill="#F4F5F7"/>
<g clip-path="url(#clip0)">
<path fill-rule="evenodd" clip-rule="evenodd" d="M34.4545 13.1424C34.0038 13.3421 33.5257 13.4731 33.0361 13.5311C33.5518 13.2224 33.9377 12.7369 34.122 12.1648C33.6372 12.4527 33.1068 12.6555 32.5536 12.7647C32.1817 12.3676 31.6892 12.1043 31.1524 12.0158C30.6156 11.9273 30.0646 12.0185 29.585 12.2752C29.1053 12.5319 28.7238 12.9397 28.4997 13.4355C28.2755 13.9312 28.2213 14.487 28.3455 15.0167C27.3634 14.9676 26.4026 14.7125 25.5256 14.2678C24.6486 13.8231 23.875 13.1989 23.2551 12.4356C23.0353 12.8126 22.9199 13.2412 22.9205 13.6775C22.9205 14.5342 23.3564 15.2906 24.0194 15.7335C23.6273 15.7208 23.2437 15.615 22.9004 15.425V15.4551C22.9004 16.0254 23.0976 16.5783 23.4587 17.0197C23.8199 17.4612 24.3226 17.7641 24.8816 17.8772C24.5178 17.9756 24.1364 17.9902 23.7661 17.9198C23.9239 18.4105 24.2312 18.8397 24.6448 19.1472C25.0585 19.4548 25.558 19.6254 26.0734 19.6351C25.1984 20.3213 24.1182 20.6935 23.0063 20.6919C22.8066 20.6919 22.61 20.6804 22.4169 20.6578C23.5463 21.3833 24.8605 21.7684 26.2028 21.7673C30.7455 21.7673 33.2292 18.004 33.2292 14.7404C33.2292 14.6335 33.2267 14.5272 33.2222 14.4214C33.7057 14.0716 34.123 13.6385 34.4545 13.1424Z" fill="black"/>
</g>
</g>
<defs>
<clipPath id="clip0">
<rect width="12.0376" height="12.0376" fill="white" transform="translate(22.4169 10.981)"/>
</clipPath>
</defs>
</svg>
